<?xml version="1.0" encoding="UTF-8" standalone="no"?>
<!-- Created with Inkscape (http://www.inkscape.org/) -->

<svg
   xmlns:dc="http://purl.org/dc/elements/1.1/"
   xmlns:cc="http://creativecommons.org/ns#"
   xmlns:rdf="http://www.w3.org/1999/02/22-rdf-syntax-ns#"
   xmlns:svg="http://www.w3.org/2000/svg"
   xmlns="http://www.w3.org/2000/svg"
   version="1.1"
   width="300"
   height="90.404236"
   id="svg1840">
  <defs
     id="defs1842">
    <clipPath
       id="clipPath106">
      <path
         d="m 163.151,610.55 186.698,0 0,61.75 -186.698,0 L 163.151,610.55 Z"
         id="path108" />
    </clipPath>
  </defs>
  <metadata
     id="metadata1845">
    <rdf:RDF>
      <cc:Work
         rdf:about="">
        <dc:format>image/svg+xml</dc:format>
        <dc:type
           rdf:resource="http://purl.org/dc/dcmitype/StillImage" />
        <dc:title></dc:title>
      </cc:Work>
    </rdf:RDF>
  </metadata>
  <g
     transform="translate(-399.62571,-530.79612)"
     id="layer1">
    <g
       transform="matrix(1.6352695,0,0,-1.6352695,132.82986,1630.1878)"
       id="g102">
      <g
         clip-path="url(#clipPath106)"
         id="g104">
        <path
           d="m 168.544,626.531 c 0,1.195 -0.251,1.543 -0.984,1.543 -0.405,0 -0.906,-0.193 -0.906,-0.676 0,-0.405 0.116,-0.809 0.116,-1.233 0,-0.984 -0.405,-1.717 -1.485,-1.717 -0.964,0 -1.486,0.675 -1.524,1.6 0,0.637 0.097,1.293 0.097,1.929 0,0.598 -0.097,1.196 -0.097,1.775 0,0.597 0.405,0.829 0.984,0.829 1.311,0 2.777,-0.193 5.593,-0.193 2.796,0 4.262,0.193 5.574,0.193 0.578,0 0.983,-0.232 0.983,-0.829 0,-0.579 -0.097,-1.177 -0.097,-1.775 0,-0.636 0.097,-1.292 0.097,-1.929 -0.038,-0.925 -0.559,-1.6 -1.524,-1.6 -1.079,0 -1.485,0.733 -1.485,1.717 0,0.424 0.116,0.828 0.116,1.233 0,0.483 -0.501,0.676 -0.906,0.676 -0.733,0 -0.984,-0.348 -0.984,-1.543 l 0,-5.169 c 0,-0.984 0.116,-1.562 0.598,-1.562 0.386,0 0.713,0.135 1.08,0.135 0.81,0 1.234,-0.714 1.234,-1.292 0,-0.83 -0.598,-1.485 -1.677,-1.485 -0.965,0 -1.929,0.192 -3.009,0.192 -1.1,0 -2.064,-0.192 -3.028,-0.192 -1.08,0 -1.678,0.655 -1.678,1.485 0,0.578 0.424,1.292 1.234,1.292 0.367,0 0.694,-0.135 1.08,-0.135 0.483,0 0.598,0.578 0.598,1.562 L 168.544,626.531 Z"
           id="path110"
           style="fill:#d5d5d5;fill-opacity:1;fill-rule:nonzero;stroke:none" />
        <path
           d="m 187.984,625.47 0,0.925 c 0,1.37 -0.155,1.563 -0.309,1.563 -0.115,0 -0.232,-0.039 -0.347,-0.058 -0.116,-0.038 -0.231,-0.077 -0.366,-0.077 -0.251,0 -0.598,0.463 -0.598,1.292 0,0.829 0.328,1.466 0.964,1.466 0.945,0 1.62,-0.193 2.603,-0.193 1.12,0 1.949,0.193 2.894,0.193 0.598,0 1.08,-0.637 1.08,-1.466 0,-0.578 -0.348,-1.292 -0.926,-1.292 -0.347,0 -0.675,0.135 -1.022,0.135 -0.27,0 -0.406,-0.289 -0.406,-1.563 l 0,-5.052 c 0,-1.139 0.136,-1.563 0.406,-1.563 0.212,0 0.347,0.039 0.501,0.078 0.154,0.019 0.309,0.057 0.521,0.057 0.578,0 0.926,-0.713 0.926,-1.292 0,-0.829 -0.482,-1.465 -1.042,-1.465 -0.983,0 -1.948,0.192 -2.932,0.192 -1.157,0 -1.89,-0.192 -2.642,-0.192 -0.597,0 -0.925,0.636 -0.925,1.465 0,0.811 0.366,1.292 0.636,1.292 0.174,0 0.25,-0.038 0.347,-0.057 0.115,-0.039 0.213,-0.078 0.328,-0.078 0.212,0 0.309,0.329 0.309,1.563 l 0,1.523 -4.07,0 0,-1.523 c 0,-1.234 0.097,-1.563 0.309,-1.563 0.116,0 0.232,0.039 0.328,0.078 0.116,0.019 0.232,0.057 0.347,0.057 0.27,0 0.636,-0.481 0.636,-1.292 0,-0.829 -0.327,-1.465 -0.925,-1.465 -0.752,0 -1.486,0.192 -2.643,0.192 -0.984,0 -1.948,-0.192 -2.931,-0.192 -0.559,0 -1.042,0.636 -1.042,1.465 0,0.579 0.348,1.292 0.926,1.292 0.212,0 0.367,-0.038 0.521,-0.057 0.154,-0.039 0.309,-0.078 0.501,-0.078 0.27,0 0.405,0.424 0.405,1.563 l 0,5.052 c 0,1.274 -0.135,1.563 -0.405,1.563 -0.347,0 -0.675,-0.135 -1.022,-0.135 -0.578,0 -0.926,0.714 -0.926,1.292 0,0.829 0.483,1.466 1.081,1.466 0.944,0 1.774,-0.193 2.892,-0.193 0.984,0 1.659,0.193 2.604,0.193 0.637,0 0.964,-0.637 0.964,-1.466 0,-0.829 -0.347,-1.292 -0.598,-1.292 -0.115,0 -0.25,0.039 -0.366,0.077 -0.115,0.019 -0.231,0.058 -0.347,0.058 -0.154,0 -0.309,-0.193 -0.309,-1.563 l 0,-0.925 L 187.984,625.47 Z"
           id="path112"
           style="fill:#d5d5d5;fill-opacity:1;fill-rule:nonzero;stroke:none" />
        <path
           d="m 197.387,626.395 c 0,1.119 -0.097,1.563 -0.444,1.563 -0.347,0 -0.617,-0.135 -0.983,-0.135 -0.598,0 -0.927,0.714 -0.927,1.292 0,0.829 0.483,1.466 1.37,1.466 0.945,0 1.678,-0.193 2.931,-0.193 2.18,0 4.88,0.193 7.407,0.193 1.079,0 1.427,-0.348 1.427,-0.984 0,-0.694 -0.174,-1.35 -0.174,-1.928 0,-0.579 0.174,-1.157 0.174,-1.736 0,-0.83 -0.714,-1.37 -1.504,-1.37 -0.965,0 -1.466,0.618 -1.466,1.543 0,0.483 0.173,0.926 0.173,1.389 0,0.521 -0.231,0.579 -1.543,0.579 l -1.465,0 c -1.254,0 -1.408,-0.972 -1.408,-1.974 l 0,-1.022 c 0,-0.445 0.135,-0.579 0.559,-0.579 0.694,0 0.868,0.27 0.868,0.636 0,0.193 -0.039,0.386 -0.039,0.559 0,0.559 0.425,0.83 0.946,0.83 0.694,0 1.079,-0.309 1.079,-1.022 0,-0.598 -0.154,-1.196 -0.154,-1.794 0,-0.83 0.154,-0.784 0.154,-1.594 0,-0.714 -0.309,-1.138 -1.06,-1.138 -0.579,0 -0.984,0.406 -0.984,0.983 0,0.213 0.039,0.406 0.039,0.599 0,0.347 -0.174,0.463 -0.849,0.463 -0.54,0 -0.559,-0.155 -0.559,-0.869 l 0,-1.002 c 0,-1.292 0.212,-1.427 1.774,-1.427 l 0.965,0 c 1.06,0 1.909,0.154 1.909,0.983 0,0.444 -0.135,0.849 -0.135,1.292 0,0.926 0.501,1.601 1.582,1.601 0.963,0 1.427,-0.733 1.427,-1.64 0,-0.751 -0.155,-1.523 -0.155,-2.275 0,-0.521 0.155,-1.003 0.155,-1.523 0,-0.656 -0.521,-1.003 -1.138,-1.003 -1.968,0 -4.398,0.192 -7.445,0.192 -1.041,0 -1.929,-0.192 -2.931,-0.192 -1.447,0 -1.93,0.636 -1.93,1.465 0,0.868 0.541,1.292 1.004,1.292 0.289,0 0.559,-0.135 0.868,-0.135 0.463,0 0.482,0.463 0.482,1.563 L 197.387,626.395 Z"
           id="path114"
           style="fill:#d5d5d5;fill-opacity:1;fill-rule:nonzero;stroke:none" />
        <path
           d="m 269.991,626.395 c 0,1.119 -0.097,1.563 -0.444,1.563 -0.346,0 -0.617,-0.135 -0.983,-0.135 -0.598,0 -0.926,0.714 -0.926,1.292 0,0.829 0.482,1.466 1.369,1.466 0.945,0 1.678,-0.193 2.932,-0.193 2.179,0 4.879,0.193 7.406,0.193 1.079,0 1.427,-0.348 1.427,-0.984 0,-0.694 -0.174,-1.35 -0.174,-1.928 0,-0.579 0.174,-1.157 0.174,-1.736 0,-0.83 -0.714,-1.37 -1.504,-1.37 -0.965,0 -1.466,0.618 -1.466,1.543 0,0.483 0.173,0.926 0.173,1.389 0,0.521 -0.231,0.579 -1.543,0.579 l -1.466,0 c -1.253,0 -1.407,-0.972 -1.407,-1.974 l 0,-1.022 c 0,-0.445 0.135,-0.579 0.559,-0.579 0.694,0 0.868,0.27 0.868,0.636 0,0.193 -0.039,0.386 -0.039,0.559 0,0.559 0.425,0.83 0.945,0.83 0.695,0 1.081,-0.309 1.081,-1.022 0,-0.598 -0.155,-1.196 -0.155,-1.794 0,-0.83 0.155,-0.784 0.155,-1.594 0,-0.714 -0.31,-1.138 -1.062,-1.138 -0.578,0 -0.983,0.406 -0.983,0.983 0,0.213 0.038,0.406 0.038,0.599 0,0.347 -0.173,0.463 -0.848,0.463 -0.54,0 -0.559,-0.155 -0.559,-0.869 l 0,-1.002 c 0,-1.292 0.211,-1.427 1.774,-1.427 l 0.964,0 c 1.061,0 1.91,0.154 1.91,0.983 0,0.444 -0.135,0.849 -0.135,1.292 0,0.926 0.501,1.601 1.582,1.601 0.963,0 1.427,-0.733 1.427,-1.64 0,-0.751 -0.155,-1.523 -0.155,-2.275 0,-0.521 0.155,-1.003 0.155,-1.523 0,-0.656 -0.522,-1.003 -1.138,-1.003 -1.968,0 -4.398,0.192 -7.445,0.192 -1.041,0 -1.929,-0.192 -2.931,-0.192 -1.447,0 -1.929,0.636 -1.929,1.465 0,0.868 0.54,1.292 1.003,1.292 0.289,0 0.56,-0.135 0.867,-0.135 0.463,0 0.483,0.463 0.483,1.563 L 269.991,626.395 Z"
           id="path116"
           style="fill:#d5d5d5;fill-opacity:1;fill-rule:nonzero;stroke:none" />
        <path
           d="m 214.491,626.489 c 0,1.252 -0.116,1.56 -0.482,1.56 -0.308,0 -0.578,-0.136 -0.867,-0.136 -0.654,0 -1,0.713 -1,1.291 0,0.828 0.481,1.463 2.175,1.463 0.886,0 1.656,-0.193 2.619,-0.193 1.675,0 2.772,0.193 3.811,0.193 1.002,0 1.944,-0.116 2.773,-0.559 1.04,-0.558 1.636,-1.54 1.636,-2.734 0,-1.463 -1.02,-2.483 -2.425,-2.695 l 0,-0.038 c 1.848,-0.443 2.945,-1.56 2.945,-3.389 0,-3.215 -2.926,-3.985 -5.198,-3.985 -1.059,0 -2.022,0.193 -3.581,0.193 -1.136,0 -1.79,-0.193 -2.657,-0.193 -1.617,0 -2.098,0.636 -2.098,1.463 0,0.577 0.346,1.29 1,1.29 0.289,0 0.559,-0.135 0.867,-0.135 0.366,0 0.482,0.385 0.482,1.559 L 214.491,626.489 z m 3.561,-0.481 c 0,-0.462 0.135,-0.462 0.924,-0.462 1.617,0 2.522,0.423 2.522,1.405 0,1.021 -1.27,1.271 -2.079,1.271 -1.271,0 -1.367,-0.25 -1.367,-1.174 L 218.052,626.008 z m 0,-5.064 c 0,-0.808 0.404,-1.116 1.925,-1.116 0.963,0 2.003,0.481 2.003,1.54 0,1.29 -1.444,1.771 -2.946,1.771 -0.943,0 -0.982,-0.019 -0.982,-0.828 L 218.052,620.944 Z"
           id="path118"
           style="fill:#d5d5d5;fill-opacity:1;fill-rule:nonzero;stroke:none" />
        <path
           d="m 229.041,626.489 c 0,1.271 -0.134,1.56 -0.404,1.56 -0.346,0 -0.674,-0.136 -1.02,-0.136 -0.578,0 -0.924,0.713 -0.924,1.291 0,0.828 0.481,1.463 1.077,1.463 0.944,0 1.772,-0.193 2.889,-0.193 1.001,0 1.963,0.193 2.945,0.193 0.867,0 1.348,-0.635 1.348,-1.463 0,-0.848 -0.52,-1.291 -1.001,-1.291 -0.135,0 -0.289,0.039 -0.424,0.077 -0.135,0.02 -0.289,0.059 -0.443,0.059 -0.366,0 -0.481,-0.289 -0.481,-1.56 l 0,-5.045 c 0,-1.231 0.096,-1.559 0.481,-1.559 0.154,0 0.308,0.039 0.443,0.077 0.135,0.02 0.289,0.058 0.424,0.058 0.655,0 1.001,-0.713 1.001,-1.29 0,-0.827 -0.481,-1.463 -1.348,-1.463 -0.982,0 -1.944,0.193 -2.945,0.193 -0.982,0 -1.945,-0.193 -2.927,-0.193 -0.558,0 -1.039,0.636 -1.039,1.463 0,0.577 0.346,1.29 0.924,1.29 0.211,0 0.365,-0.038 0.52,-0.058 0.154,-0.038 0.308,-0.077 0.5,-0.077 0.27,0 0.404,0.424 0.404,1.559 L 229.041,626.489 Z"
           id="path120"
           style="fill:#d5d5d5;fill-opacity:1;fill-rule:nonzero;stroke:none" />
        <path
           d="m 241.429,619.77 c 0.925,0 1.734,0.481 1.734,1.444 0,0.462 -0.212,0.808 -0.694,0.808 -0.211,0 -0.404,-0.058 -0.616,-0.058 -0.636,0 -0.943,0.674 -0.943,1.213 0,0.809 0.616,1.309 1.386,1.309 0.867,0 1.714,-0.211 2.58,-0.211 0.77,0 1.521,0.211 2.272,0.211 0.712,0 1.444,-0.5 1.444,-1.444 0,-0.942 -0.501,-1.366 -0.905,-1.366 -0.193,0 -0.443,0.057 -0.597,0.057 -0.154,0 -0.481,-0.269 -0.481,-0.962 0,-0.828 0.076,-1.405 0.076,-2.425 0,-0.925 -0.539,-1.33 -1.443,-1.33 -0.713,0 -1.483,0.231 -1.387,1.079 -0.886,-0.751 -1.963,-1.079 -3.119,-1.079 -1.578,0 -3.176,0.752 -4.197,1.964 -1.02,1.233 -1.386,3.12 -1.386,4.698 0,5.064 2.58,7.258 5.68,7.258 1.328,0 2.579,-0.346 3.484,-1.386 0.038,0.693 0.443,1.156 1.175,1.156 0.732,0 1.175,-0.424 1.175,-1.175 0,-0.539 -0.136,-1.04 -0.136,-1.733 0,-0.539 0.136,-0.943 0.136,-1.483 0,-0.635 -0.694,-1.251 -1.522,-1.251 -1.078,0 -1.424,0.347 -1.655,1.56 -0.194,1.02 -1.002,1.56 -2.003,1.56 -1.559,0 -2.637,-1.368 -2.637,-4.66 0,-2.368 0.846,-3.754 2.579,-3.754"
           id="path122"
           style="fill:#d5d5d5;fill-opacity:1;fill-rule:nonzero;stroke:none" />
        <path
           d="m 258.06,620.939 c 0.038,-0.887 0.154,-1.157 0.482,-1.157 0.154,0 0.308,0.039 0.443,0.077 0.135,0.02 0.289,0.058 0.424,0.058 0.657,0 1.004,-0.713 1.004,-1.292 0,-0.829 -0.483,-1.465 -1.351,-1.465 -0.752,0 -1.562,0.192 -2.642,0.192 -0.984,0 -1.947,-0.192 -2.932,-0.192 -0.867,0 -1.35,0.636 -1.35,1.465 0,0.579 0.348,1.292 1.003,1.292 0.155,0 0.29,-0.038 0.425,-0.058 0.154,-0.038 0.289,-0.077 0.444,-0.077 0.404,0 0.481,0.327 0.481,1.562 l 0,5.053 c 0,1.216 -0.095,1.562 -0.481,1.562 -0.31,0 -0.579,-0.134 -0.869,-0.134 -0.655,0 -1.003,0.713 -1.003,1.291 0,0.83 0.483,1.467 1.37,1.467 0.906,0 1.871,-0.193 3.163,-0.193 1.678,0 2.758,0.193 4.32,0.193 2.314,0 4.05,-1.312 4.05,-3.395 0,-1.89 -1.119,-2.662 -2.836,-2.97 l 0,-0.039 c 1.64,-0.192 2.624,-0.907 2.624,-2.68 l 0,-0.849 c 0,-0.559 0.038,-0.791 0.424,-0.791 0.193,0 0.386,0.058 0.598,0.058 0.54,0 0.887,-0.713 0.887,-1.292 0,-0.829 -0.482,-1.465 -1.35,-1.465 -0.404,0 -0.752,0.192 -1.176,0.192 -0.521,0 -0.868,-0.192 -1.312,-0.192 -1.427,0 -1.678,1.253 -1.678,2.352 0,0.386 0.039,0.811 0.039,1.33 0,1.621 -1.08,1.776 -2.43,1.776 -0.463,0 -0.771,-0.136 -0.771,-0.772 L 258.06,620.939 z m 0,4.88 c 0,-0.559 0.192,-0.733 0.771,-0.733 2.006,0 2.507,0.81 2.507,1.543 0,1.022 -0.964,1.33 -1.736,1.33 -1.253,0 -1.542,-0.134 -1.542,-0.887 L 258.06,625.819 Z"
           id="path124"
           style="fill:#d5d5d5;fill-opacity:1;fill-rule:nonzero;stroke:none" />
        <path
           d="m 284.731,626.397 c 0,1.369 -0.192,1.562 -0.481,1.562 -0.309,0 -0.579,-0.134 -0.869,-0.134 -0.654,0 -1.002,0.713 -1.002,1.291 0,0.83 0.482,1.467 1.35,1.467 0.926,0 1.658,-0.193 2.623,-0.193 1.62,0 2.545,0.193 3.587,0.193 1.794,0 3.259,-0.522 4.416,-1.968 1.042,-1.311 1.563,-3.086 1.563,-4.745 0,-1.58 -0.482,-3.258 -1.408,-4.551 -1.1,-1.523 -2.604,-2.159 -4.455,-2.159 -1.428,0 -2.353,0.192 -3.587,0.192 -1.042,0 -1.737,-0.192 -2.623,-0.192 -0.984,0 -1.466,0.636 -1.466,1.465 0,0.579 0.348,1.292 1.002,1.292 0.29,0 0.56,-0.135 0.869,-0.135 0.405,0 0.481,0.463 0.481,1.562 L 284.731,626.397 z m 3.568,-5.94 c 0,-0.231 0.02,-0.463 0.251,-0.598 0.213,-0.135 0.56,-0.174 0.791,-0.174 0.907,0 1.677,0.56 2.16,1.293 0.541,0.81 0.733,2.064 0.733,3.009 0,1.041 -0.232,2.121 -0.868,2.969 -0.482,0.637 -1.215,1.1 -2.025,1.1 -0.945,0 -1.042,-0.212 -1.042,-1.293 L 288.299,620.457 Z"
           id="path126"
           style="fill:#d5d5d5;fill-opacity:1;fill-rule:nonzero;stroke:none" />
        <path
           d="m 302.575,626.522 c 0,1.37 -0.194,1.563 -0.482,1.563 -0.309,0 -0.579,-0.135 -0.868,-0.135 -0.656,0 -1.003,0.713 -1.003,1.292 0,0.829 0.482,1.465 1.35,1.465 0.925,0 1.659,-0.193 2.623,-0.193 1.62,0 2.545,0.193 3.587,0.193 1.794,0 3.259,-0.521 4.417,-1.967 1.041,-1.311 1.562,-3.085 1.562,-4.744 0,-1.581 -0.482,-3.259 -1.408,-4.552 -1.099,-1.523 -2.604,-2.159 -4.455,-2.159 -1.428,0 -2.354,0.192 -3.588,0.192 -1.041,0 -1.735,-0.192 -2.622,-0.192 -0.984,0 -1.466,0.636 -1.466,1.465 0,0.579 0.347,1.292 1.003,1.292 0.289,0 0.559,-0.135 0.868,-0.135 0.404,0 0.482,0.463 0.482,1.562 L 302.575,626.522 z m 3.567,-5.94 c 0,-0.231 0.02,-0.463 0.251,-0.598 0.212,-0.135 0.56,-0.173 0.792,-0.173 0.905,0 1.677,0.559 2.159,1.292 0.54,0.81 0.733,2.064 0.733,3.009 0,1.041 -0.232,2.121 -0.868,2.97 -0.482,0.636 -1.215,1.099 -2.024,1.099 -0.946,0 -1.043,-0.212 -1.043,-1.292 L 306.142,620.582 Z"
           id="path128"
           style="fill:#d5d5d5;fill-opacity:1;fill-rule:nonzero;stroke:none" />
        <path
           d="m 325.68,629.068 c 1.138,-1.35 1.62,-3.298 1.62,-5.034 0,-1.619 -0.385,-3.529 -1.37,-4.84 -1.118,-1.485 -3.008,-2.161 -4.841,-2.161 -1.812,0 -3.587,0.483 -4.801,1.929 -1.1,1.312 -1.525,3.395 -1.525,5.092 0,1.601 0.367,3.471 1.351,4.783 1.099,1.465 3.008,2.141 4.802,2.141 1.813,0 3.549,-0.464 4.764,-1.91 m -2.083,-5.169 c 0,3.106 -0.849,4.302 -2.527,4.302 -1.407,0 -2.603,-0.734 -2.603,-4.186 0,-3.028 0.81,-4.204 2.564,-4.204 1.756,0 2.566,1.253 2.566,4.088"
           id="path130"
           style="fill:#d5d5d5;fill-opacity:1;fill-rule:nonzero;stroke:none" />
        <path
           d="m 334.589,619.792 c 0.926,0 1.735,0.482 1.735,1.446 0,0.463 -0.212,0.81 -0.694,0.81 -0.211,0 -0.405,-0.058 -0.617,-0.058 -0.637,0 -0.946,0.676 -0.946,1.215 0,0.81 0.618,1.311 1.39,1.311 0.867,0 1.716,-0.212 2.583,-0.212 0.772,0 1.524,0.212 2.277,0.212 0.713,0 1.446,-0.501 1.446,-1.446 0,-0.945 -0.501,-1.369 -0.906,-1.369 -0.193,0 -0.444,0.058 -0.598,0.058 -0.154,0 -0.482,-0.27 -0.482,-0.964 0,-0.83 0.077,-1.409 0.077,-2.431 0,-0.925 -0.54,-1.331 -1.446,-1.331 -0.714,0 -1.486,0.232 -1.39,1.08 -0.886,-0.752 -1.967,-1.08 -3.123,-1.08 -1.582,0 -3.183,0.753 -4.205,1.968 -1.022,1.234 -1.389,3.124 -1.389,4.705 0,5.072 2.585,7.272 5.69,7.272 1.331,0 2.584,-0.348 3.491,-1.389 0.038,0.694 0.443,1.157 1.176,1.157 0.733,0 1.176,-0.424 1.176,-1.176 0,-0.54 -0.135,-1.042 -0.135,-1.737 0,-0.539 0.135,-0.944 0.135,-1.484 0,-0.637 -0.694,-1.254 -1.523,-1.254 -1.08,0 -1.427,0.347 -1.659,1.562 -0.192,1.022 -1.003,1.563 -2.005,1.563 -1.562,0 -2.643,-1.369 -2.643,-4.668 0,-2.372 0.849,-3.76 2.585,-3.76"
           id="path132"
           style="fill:#d5d5d5;fill-opacity:1;fill-rule:nonzero;stroke:none" />
        <path
           d="m 166.487,664.415 c 2.368,3.621 6.546,5.525 10.863,5.525 3.157,0 5.803,-0.975 7.939,-3.296 l 0.093,0.093 c -0.232,1.764 1.021,3.017 2.878,3.017 1.765,0 2.972,-1.207 2.972,-2.971 0,-1.579 -0.372,-3.111 -0.372,-4.689 0,-1.254 0.372,-2.507 0.372,-3.761 0,-2.135 -1.996,-3.203 -3.9,-3.203 -2.507,0 -3.621,1.161 -3.529,3.668 0.047,1.346 0.047,1.996 -0.835,3.063 -0.975,1.161 -2.507,1.439 -3.946,1.439 -4.318,0 -6.453,-2.738 -6.453,-10.305 0,-7.104 2.135,-10.029 6.684,-10.029 1.254,0 2.647,0.187 3.575,1.068 1.115,1.022 1.161,2.043 1.161,3.436 0,1.068 0,1.903 0.603,2.831 0.604,0.929 1.719,1.301 2.833,1.301 3.017,0 4.364,-2.182 4.364,-4.968 0,-7.01 -6.639,-10.26 -12.861,-10.26 -4.224,0 -8.31,1.207 -11.281,4.41 -2.785,3.018 -3.993,8.078 -3.993,12.117 0,3.668 0.79,8.404 2.833,11.514"
           id="path134"
           style="fill:#d5d5d5;fill-opacity:1;fill-rule:nonzero;stroke:none" />
        <path
           d="m 166.487,664.415 c 2.368,3.621 6.546,5.525 10.863,5.525 3.157,0 5.803,-0.975 7.939,-3.296 l 0.093,0.093 c -0.232,1.764 1.021,3.017 2.878,3.017 1.765,0 2.972,-1.207 2.972,-2.971 0,-1.579 -0.372,-3.111 -0.372,-4.689 0,-1.254 0.372,-2.507 0.372,-3.761 0,-2.135 -1.996,-3.203 -3.9,-3.203 -2.507,0 -3.621,1.161 -3.529,3.668 0.047,1.346 0.047,1.996 -0.835,3.063 -0.975,1.161 -2.507,1.439 -3.946,1.439 -4.318,0 -6.453,-2.738 -6.453,-10.305 0,-7.104 2.135,-10.029 6.684,-10.029 1.254,0 2.647,0.187 3.575,1.068 1.115,1.022 1.161,2.043 1.161,3.436 0,1.068 0,1.903 0.603,2.831 0.604,0.929 1.719,1.301 2.833,1.301 3.017,0 4.364,-2.182 4.364,-4.968 0,-7.01 -6.639,-10.26 -12.861,-10.26 -4.224,0 -8.31,1.207 -11.281,4.41 -2.785,3.018 -3.993,8.078 -3.993,12.117 C 163.654,656.569 164.444,661.305 166.487,664.415 Z"
           id="path136"
           style="fill:none;stroke:#d5d5d5;stroke-width:1.00699997;stroke-linecap:round;stroke-linejoin:round;stroke-miterlimit:4;stroke-opacity:1;stroke-dasharray:none" />
        <path
           d="m 204.513,645.752 c 0,-2.878 0.417,-3.25 0.789,-3.25 0.232,0 0.464,0.093 0.696,0.186 0.278,0.093 0.557,0.139 0.836,0.139 1.532,0 2.043,-1.253 2.043,-2.646 0,-1.764 -0.79,-3.204 -2.74,-3.204 -1.996,0 -3.853,0.465 -5.757,0.465 -1.764,0 -3.528,-0.465 -5.199,-0.465 -1.95,0 -2.739,1.44 -2.739,3.204 0,1.393 0.511,2.646 2.043,2.646 0.325,0 0.557,-0.093 0.835,-0.139 0.233,-0.047 0.464,-0.186 0.697,-0.186 0.65,0 0.835,0.929 0.835,3.25 l 0,14.763 c 0,2.229 -0.093,3.204 -0.835,3.204 -0.464,0 -0.929,-0.325 -1.532,-0.325 -1.532,0 -2.043,1.253 -2.043,2.646 0,1.811 0.789,3.25 2.739,3.25 1.207,0 2.46,-0.464 3.714,-0.464 1.393,0 2.739,0.464 4.085,0.464 1.114,0 1.533,-0.696 1.533,-2.507 L 204.513,645.752 Z"
           id="path138"
           style="fill:#d5d5d5;fill-opacity:1;fill-rule:nonzero;stroke:none" />
        <path
           d="m 204.513,645.752 c 0,-2.878 0.417,-3.25 0.789,-3.25 0.232,0 0.464,0.093 0.696,0.186 0.278,0.093 0.557,0.139 0.836,0.139 1.532,0 2.043,-1.253 2.043,-2.646 0,-1.764 -0.79,-3.204 -2.74,-3.204 -1.996,0 -3.853,0.465 -5.757,0.465 -1.764,0 -3.528,-0.465 -5.199,-0.465 -1.95,0 -2.739,1.44 -2.739,3.204 0,1.393 0.511,2.646 2.043,2.646 0.325,0 0.557,-0.093 0.835,-0.139 0.233,-0.047 0.464,-0.186 0.697,-0.186 0.65,0 0.835,0.929 0.835,3.25 l 0,14.763 c 0,2.229 -0.093,3.204 -0.835,3.204 -0.464,0 -0.929,-0.325 -1.532,-0.325 -1.532,0 -2.043,1.253 -2.043,2.646 0,1.811 0.789,3.25 2.739,3.25 1.207,0 2.46,-0.464 3.714,-0.464 1.393,0 2.739,0.464 4.085,0.464 1.114,0 1.533,-0.696 1.533,-2.507 L 204.513,645.752 Z"
           id="path140"
           style="fill:none;stroke:#d5d5d5;stroke-width:1.00699997;stroke-linecap:round;stroke-linejoin:round;stroke-miterlimit:4;stroke-opacity:1;stroke-dasharray:none" />
        <path
           d="m 214.44,652.437 c 0,2.415 -0.139,3.25 -0.835,3.25 -0.465,0 -0.929,-0.325 -1.532,-0.325 -1.532,0 -2.043,1.254 -2.043,2.646 0,1.764 0.789,3.204 2.785,3.204 1.301,0 2.554,-0.465 3.807,-0.465 1.393,0 2.739,0.465 4.086,0.465 1.068,0 1.393,-0.697 1.393,-2.368 l 0,-13.092 c 0,-2.878 0.417,-3.25 0.789,-3.25 0.232,0 0.464,0.093 0.696,0.186 0.279,0.093 0.557,0.139 0.836,0.139 1.532,0 2.043,-1.253 2.043,-2.646 0,-1.764 -0.789,-3.204 -2.74,-3.204 -1.996,0 -3.853,0.465 -5.757,0.465 -1.763,0 -3.528,-0.465 -5.199,-0.465 -1.95,0 -2.739,1.44 -2.739,3.204 0,1.393 0.511,2.646 2.043,2.646 0.324,0 0.557,-0.093 0.835,-0.139 0.232,-0.047 0.464,-0.186 0.697,-0.186 0.65,0 0.835,0.929 0.835,3.25 L 214.44,652.437 z m 7.892,14.996 c 0,-2.414 -1.949,-4.364 -4.364,-4.364 -2.413,0 -4.363,1.95 -4.363,4.364 0,2.414 1.95,4.364 4.363,4.364 2.415,0 4.364,-1.95 4.364,-4.364"
           id="path142"
           style="fill:#d5d5d5;fill-opacity:1;fill-rule:nonzero;stroke:none" />
        <path
           d="m 214.44,652.437 c 0,2.415 -0.139,3.25 -0.835,3.25 -0.465,0 -0.929,-0.325 -1.532,-0.325 -1.532,0 -2.043,1.254 -2.043,2.646 0,1.764 0.789,3.204 2.785,3.204 1.301,0 2.554,-0.465 3.807,-0.465 1.393,0 2.739,0.465 4.086,0.465 1.068,0 1.393,-0.697 1.393,-2.368 l 0,-13.092 c 0,-2.878 0.417,-3.25 0.789,-3.25 0.232,0 0.464,0.093 0.696,0.186 0.279,0.093 0.557,0.139 0.836,0.139 1.532,0 2.043,-1.253 2.043,-2.646 0,-1.764 -0.789,-3.204 -2.74,-3.204 -1.996,0 -3.853,0.465 -5.757,0.465 -1.763,0 -3.528,-0.465 -5.199,-0.465 -1.95,0 -2.739,1.44 -2.739,3.204 0,1.393 0.511,2.646 2.043,2.646 0.324,0 0.557,-0.093 0.835,-0.139 0.232,-0.047 0.464,-0.186 0.697,-0.186 0.65,0 0.835,0.929 0.835,3.25 L 214.44,652.437 z m 7.892,14.996 c 0,-2.414 -1.949,-4.364 -4.364,-4.364 -2.413,0 -4.363,1.95 -4.363,4.364 0,2.414 1.95,4.364 4.363,4.364 C 220.383,671.797 222.332,669.847 222.332,667.433 Z"
           id="path144"
           style="fill:none;stroke:#d5d5d5;stroke-width:1.00699997;stroke-linecap:round;stroke-linejoin:round;stroke-miterlimit:4;stroke-opacity:1;stroke-dasharray:none" />
        <path
           d="m 231.972,654.248 c 0,1.81 -0.139,1.81 -1.579,1.81 -1.81,0 -2.832,0.418 -2.832,2.461 0,1.903 0.697,2.739 2.6,2.739 1.764,0 1.811,0.186 1.858,1.532 0.185,5.061 4.549,7.15 9.145,7.15 1.532,0 3.435,-0.279 4.782,-0.975 1.578,-0.836 2.786,-2.321 2.786,-4.132 0,-2.043 -1.393,-3.621 -3.482,-3.621 -1.532,0 -3.158,1.068 -3.158,2.739 0,0.511 0.14,0.789 0.418,1.253 -0.324,0.14 -0.556,0.186 -0.928,0.186 -1.717,0 -2.321,-1.022 -2.321,-2.646 0,-1.486 0.093,-1.486 1.578,-1.486 2.785,0 3.296,-0.743 3.296,-2.507 0,-2.135 -0.603,-2.693 -3.9,-2.693 -0.835,0 -0.974,-0.556 -0.974,-1.81 l 0,-8.496 c 0,-2.786 0.185,-3.25 0.835,-3.25 0.279,0 0.512,0.093 0.743,0.186 0.232,0.046 0.51,0.139 0.789,0.139 1.532,0 2.043,-1.253 2.043,-2.646 0,-1.764 -0.789,-3.204 -2.739,-3.204 -1.996,0 -3.853,0.465 -5.757,0.465 -1.764,0 -3.528,-0.418 -5.06,-0.465 -1.764,0 -2.554,1.44 -2.554,3.204 0,1.393 0.511,2.646 2.043,2.646 0.325,0 0.604,-0.093 0.836,-0.139 0.278,-0.093 0.511,-0.186 0.696,-0.186 0.743,0 0.836,0.975 0.836,3.25 L 231.972,654.248 Z"
           id="path146"
           style="fill:#d5d5d5;fill-opacity:1;fill-rule:nonzero;stroke:none" />
        <path
           d="m 231.972,654.248 c 0,1.81 -0.139,1.81 -1.579,1.81 -1.81,0 -2.832,0.418 -2.832,2.461 0,1.903 0.697,2.739 2.6,2.739 1.764,0 1.811,0.186 1.858,1.532 0.185,5.061 4.549,7.15 9.145,7.15 1.532,0 3.435,-0.279 4.782,-0.975 1.578,-0.836 2.786,-2.321 2.786,-4.132 0,-2.043 -1.393,-3.621 -3.482,-3.621 -1.532,0 -3.158,1.068 -3.158,2.739 0,0.511 0.14,0.789 0.418,1.253 -0.324,0.14 -0.556,0.186 -0.928,0.186 -1.717,0 -2.321,-1.022 -2.321,-2.646 0,-1.486 0.093,-1.486 1.578,-1.486 2.785,0 3.296,-0.743 3.296,-2.507 0,-2.135 -0.603,-2.693 -3.9,-2.693 -0.835,0 -0.974,-0.556 -0.974,-1.81 l 0,-8.496 c 0,-2.786 0.185,-3.25 0.835,-3.25 0.279,0 0.512,0.093 0.743,0.186 0.232,0.046 0.51,0.139 0.789,0.139 1.532,0 2.043,-1.253 2.043,-2.646 0,-1.764 -0.789,-3.204 -2.739,-3.204 -1.996,0 -3.853,0.465 -5.757,0.465 -1.764,0 -3.528,-0.418 -5.06,-0.465 -1.764,0 -2.554,1.44 -2.554,3.204 0,1.393 0.511,2.646 2.043,2.646 0.325,0 0.604,-0.093 0.836,-0.139 0.278,-0.093 0.511,-0.186 0.696,-0.186 0.743,0 0.836,0.975 0.836,3.25 L 231.972,654.248 Z"
           id="path148"
           style="fill:none;stroke:#d5d5d5;stroke-width:1.00699997;stroke-linecap:round;stroke-linejoin:round;stroke-miterlimit:4;stroke-opacity:1;stroke-dasharray:none" />
        <path
           d="m 251.397,654.248 c 0,1.81 -0.139,1.81 -1.579,1.81 -1.809,0 -2.831,0.418 -2.831,2.461 0,1.903 0.697,2.739 2.6,2.739 1.764,0 1.81,0.186 1.857,1.532 0.186,5.061 4.55,7.15 9.146,7.15 1.531,0 3.435,-0.279 4.781,-0.975 1.579,-0.836 2.786,-2.321 2.786,-4.132 0,-2.043 -1.393,-3.621 -3.482,-3.621 -1.532,0 -3.157,1.068 -3.157,2.739 0,0.511 0.139,0.789 0.418,1.253 -0.325,0.14 -0.557,0.186 -0.928,0.186 -1.718,0 -2.322,-1.022 -2.322,-2.646 0,-1.486 0.094,-1.486 1.578,-1.486 2.786,0 3.297,-0.743 3.297,-2.507 0,-2.135 -0.604,-2.693 -3.9,-2.693 -0.836,0 -0.975,-0.556 -0.975,-1.81 l 0,-8.496 c 0,-2.786 0.185,-3.25 0.836,-3.25 0.278,0 0.51,0.093 0.742,0.186 0.233,0.046 0.511,0.139 0.79,0.139 1.532,0 2.042,-1.253 2.042,-2.646 0,-1.764 -0.789,-3.204 -2.738,-3.204 -1.997,0 -3.854,0.465 -5.757,0.465 -1.764,0 -3.529,-0.418 -5.061,-0.465 -1.764,0 -2.553,1.44 -2.553,3.204 0,1.393 0.51,2.646 2.043,2.646 0.324,0 0.603,-0.093 0.836,-0.139 0.278,-0.093 0.51,-0.186 0.695,-0.186 0.744,0 0.836,0.975 0.836,3.25 L 251.397,654.248 Z"
           id="path150"
           style="fill:#d5d5d5;fill-opacity:1;fill-rule:nonzero;stroke:none" />
        <path
           d="m 251.397,654.248 c 0,1.81 -0.139,1.81 -1.579,1.81 -1.809,0 -2.831,0.418 -2.831,2.461 0,1.903 0.697,2.739 2.6,2.739 1.764,0 1.81,0.186 1.857,1.532 0.186,5.061 4.55,7.15 9.146,7.15 1.531,0 3.435,-0.279 4.781,-0.975 1.579,-0.836 2.786,-2.321 2.786,-4.132 0,-2.043 -1.393,-3.621 -3.482,-3.621 -1.532,0 -3.157,1.068 -3.157,2.739 0,0.511 0.139,0.789 0.418,1.253 -0.325,0.14 -0.557,0.186 -0.928,0.186 -1.718,0 -2.322,-1.022 -2.322,-2.646 0,-1.486 0.094,-1.486 1.578,-1.486 2.786,0 3.297,-0.743 3.297,-2.507 0,-2.135 -0.604,-2.693 -3.9,-2.693 -0.836,0 -0.975,-0.556 -0.975,-1.81 l 0,-8.496 c 0,-2.786 0.185,-3.25 0.836,-3.25 0.278,0 0.51,0.093 0.742,0.186 0.233,0.046 0.511,0.139 0.79,0.139 1.532,0 2.042,-1.253 2.042,-2.646 0,-1.764 -0.789,-3.204 -2.738,-3.204 -1.997,0 -3.854,0.465 -5.757,0.465 -1.764,0 -3.529,-0.418 -5.061,-0.465 -1.764,0 -2.553,1.44 -2.553,3.204 0,1.393 0.51,2.646 2.043,2.646 0.324,0 0.603,-0.093 0.836,-0.139 0.278,-0.093 0.51,-0.186 0.695,-0.186 0.744,0 0.836,0.975 0.836,3.25 L 251.397,654.248 Z"
           id="path152"
           style="fill:none;stroke:#d5d5d5;stroke-width:1.00699997;stroke-linecap:round;stroke-linejoin:round;stroke-miterlimit:4;stroke-opacity:1;stroke-dasharray:none" />
        <path
           d="m 276.143,661.908 c -8.032,0 -12.349,-4.875 -12.349,-12.767 0,-7.939 4.317,-12.767 12.395,-12.767 8.124,0 12.025,5.339 12.025,13.046 0,7.474 -4.457,12.488 -12.071,12.488 m 3.389,-17.688 c -0.743,-1.532 -2.136,-1.996 -3.76,-1.996 -1.903,0 -4.318,1.531 -4.318,6.917 0,5.199 2.367,6.917 4.55,6.917 2.506,0 4.549,-1.532 4.549,-6.917 0,-1.578 -0.325,-3.482 -1.021,-4.921"
           id="path154"
           style="fill:#d5d5d5;fill-opacity:1;fill-rule:nonzero;stroke:none" />
        <path
           d="m 276.143,661.908 c -8.032,0 -12.349,-4.875 -12.349,-12.767 0,-7.939 4.317,-12.767 12.395,-12.767 8.124,0 12.025,5.339 12.025,13.046 C 288.214,656.894 283.757,661.908 276.143,661.908 z m 3.389,-17.688 c -0.743,-1.532 -2.136,-1.996 -3.76,-1.996 -1.903,0 -4.318,1.531 -4.318,6.917 0,5.199 2.367,6.917 4.55,6.917 2.506,0 4.549,-1.532 4.549,-6.917 C 280.553,647.563 280.228,645.659 279.532,644.22 Z"
           id="path156"
           style="fill:none;stroke:#d5d5d5;stroke-width:1.00699997;stroke-linecap:round;stroke-linejoin:round;stroke-miterlimit:4;stroke-opacity:1;stroke-dasharray:none" />
        <path
           d="m 298.198,655.733 0.093,0 c 0.742,3.808 3.574,5.943 7.474,5.943 3.25,0 6.128,-2.46 6.128,-5.803 0,-2.368 -1.485,-4.55 -3.992,-4.55 -1.764,0 -3.25,1.16 -3.25,3.017 0,0.65 0.279,1.254 0.557,1.811 -5.2,0.372 -5.339,-6.685 -5.339,-10.399 0,-2.739 0.279,-3.25 0.836,-3.25 0.232,0 0.464,0.093 0.696,0.186 0.279,0.093 0.558,0.139 0.836,0.139 1.532,0 2.043,-1.253 2.043,-2.646 0,-1.764 -0.789,-3.204 -2.321,-3.204 -2.507,0 -4.364,0.465 -6.268,0.465 -1.764,0 -3.529,-0.465 -5.2,-0.465 -1.531,0 -2.321,1.44 -2.321,3.204 0,1.393 0.511,2.646 2.042,2.646 0.326,0 0.558,-0.093 0.837,-0.139 0.232,-0.047 0.464,-0.186 0.696,-0.186 0.557,0 0.836,0.464 0.836,3.25 l 0,6.685 c 0,2.878 -0.233,3.25 -0.836,3.25 -0.464,0 -0.929,-0.325 -1.533,-0.325 -1.531,0 -2.042,1.254 -2.042,2.646 0,1.764 0.79,3.204 2.321,3.204 1.347,0 2.275,-0.465 3.204,-0.465 1.021,0 1.996,0.465 3.063,0.465 1.022,0 1.44,-0.325 1.44,-1.996 L 298.198,655.733 Z"
           id="path158"
           style="fill:#d5d5d5;fill-opacity:1;fill-rule:nonzero;stroke:none" />
        <path
           d="m 298.198,655.733 0.093,0 c 0.742,3.808 3.574,5.943 7.474,5.943 3.25,0 6.128,-2.46 6.128,-5.803 0,-2.368 -1.485,-4.55 -3.992,-4.55 -1.764,0 -3.25,1.16 -3.25,3.017 0,0.65 0.279,1.254 0.557,1.811 -5.2,0.372 -5.339,-6.685 -5.339,-10.399 0,-2.739 0.279,-3.25 0.836,-3.25 0.232,0 0.464,0.093 0.696,0.186 0.279,0.093 0.558,0.139 0.836,0.139 1.532,0 2.043,-1.253 2.043,-2.646 0,-1.764 -0.789,-3.204 -2.321,-3.204 -2.507,0 -4.364,0.465 -6.268,0.465 -1.764,0 -3.529,-0.465 -5.2,-0.465 -1.531,0 -2.321,1.44 -2.321,3.204 0,1.393 0.511,2.646 2.042,2.646 0.326,0 0.558,-0.093 0.837,-0.139 0.232,-0.047 0.464,-0.186 0.696,-0.186 0.557,0 0.836,0.464 0.836,3.25 l 0,6.685 c 0,2.878 -0.233,3.25 -0.836,3.25 -0.464,0 -0.929,-0.325 -1.533,-0.325 -1.531,0 -2.042,1.254 -2.042,2.646 0,1.764 0.79,3.204 2.321,3.204 1.347,0 2.275,-0.465 3.204,-0.465 1.021,0 1.996,0.465 3.063,0.465 1.022,0 1.44,-0.325 1.44,-1.996 L 298.198,655.733 Z"
           id="path160"
           style="fill:none;stroke:#d5d5d5;stroke-width:1.00699997;stroke-linecap:round;stroke-linejoin:round;stroke-miterlimit:4;stroke-opacity:1;stroke-dasharray:none" />
        <path
           d="m 339.273,642.827 c -0.788,0 -1.346,-0.278 -1.903,-0.278 -0.696,0 -0.975,0.557 -0.975,3.296 l 0,20.195 c 0,2.461 -0.278,3.25 -2.136,3.25 -1.346,0 -2.693,-0.464 -4.086,-0.464 -1.253,0 -2.506,0.464 -3.714,0.464 -1.624,0 -2.552,-1.579 -2.552,-3.25 0,-1.346 0.557,-2.6 2.413,-2.6 0.79,0 1.347,0.279 1.904,0.279 0.511,0 0.882,-0.419 0.882,-3.297 l 0,-1.764 c -1.811,1.857 -3.807,3.25 -6.499,3.25 -7.01,0 -10.075,-6.685 -10.075,-12.953 0,-6.081 3.343,-12.581 10.027,-12.581 2.879,0 5.944,1.347 7.29,4.318 l 0.093,0 c -0.093,-2.136 0.046,-3.715 1.393,-3.715 1.114,0 2.274,0.465 3.436,0.465 1.252,0 2.506,-0.465 3.76,-0.465 2.228,0 3.156,1.579 3.156,3.25 0,1.347 -0.557,2.6 -2.414,2.6 m -14.949,-0.186 c -3.11,0 -4.131,3.343 -4.131,5.943 0,2.6 0.881,7.057 4.178,7.057 1.299,0 2.554,-1.161 3.343,-2.136 0.974,-1.207 1.392,-3.018 1.392,-4.503 0,-2.878 -1.392,-6.361 -4.782,-6.361"
           id="path162"
           style="fill:#d5d5d5;fill-opacity:1;fill-rule:nonzero;stroke:none" />
        <path
           d="m 339.273,642.827 c -0.788,0 -1.346,-0.278 -1.903,-0.278 -0.696,0 -0.975,0.557 -0.975,3.296 l 0,20.195 c 0,2.461 -0.278,3.25 -2.136,3.25 -1.346,0 -2.693,-0.464 -4.086,-0.464 -1.253,0 -2.506,0.464 -3.714,0.464 -1.624,0 -2.552,-1.579 -2.552,-3.25 0,-1.346 0.557,-2.6 2.413,-2.6 0.79,0 1.347,0.279 1.904,0.279 0.511,0 0.882,-0.419 0.882,-3.297 l 0,-1.764 c -1.811,1.857 -3.807,3.25 -6.499,3.25 -7.01,0 -10.075,-6.685 -10.075,-12.953 0,-6.081 3.343,-12.581 10.027,-12.581 2.879,0 5.944,1.347 7.29,4.318 l 0.093,0 c -0.093,-2.136 0.046,-3.715 1.393,-3.715 1.114,0 2.274,0.465 3.436,0.465 1.252,0 2.506,-0.465 3.76,-0.465 2.228,0 3.156,1.579 3.156,3.25 C 341.687,641.574 341.13,642.827 339.273,642.827 z m -14.949,-0.186 c -3.11,0 -4.131,3.343 -4.131,5.943 0,2.6 0.881,7.057 4.178,7.057 1.299,0 2.554,-1.161 3.343,-2.136 0.974,-1.207 1.392,-3.018 1.392,-4.503 C 329.106,646.124 327.714,642.641 324.324,642.641 Z"
           id="path164"
           style="fill:none;stroke:#d5d5d5;stroke-width:1.00699997;stroke-linecap:round;stroke-linejoin:round;stroke-miterlimit:4;stroke-opacity:1;stroke-dasharray:none" />
        <path
           d="m 341.302,630.622 2.276,0 0,-0.336 -0.951,0 0,-2.471 -0.375,0 0,2.471 -0.95,0 L 341.302,630.622 Z"
           id="path166"
           style="fill:#d5d5d5;fill-opacity:1;fill-rule:nonzero;stroke:none" />
        <path
           d="m 346.239,627.817 0,1.657 c 0,0.082 0.008,0.437 0.008,0.699 l -0.008,0 -0.789,-2.356 -0.375,0 -0.791,2.351 -0.007,0 c 0,-0.257 0.007,-0.612 0.007,-0.694 l 0,-1.657 -0.368,0 0,2.805 0.544,0 0.802,-2.37 0.008,0 0.797,2.37 0.54,0 0,-2.805 L 346.239,627.817 Z"
           id="path168"
           style="fill:#d5d5d5;fill-opacity:1;fill-rule:nonzero;stroke:none" />
      </g>
    </g>
  </g>
</svg>
