<?xml version="1.0" encoding="utf-8"?>
<!-- Generator: Adobe Illustrator 26.5.0, SVG Export Plug-In . SVG Version: 6.00 Build 0)  -->
<svg version="1.0" id="katman_1" xmlns="http://www.w3.org/2000/svg" xmlns:xlink="http://www.w3.org/1999/xlink" x="0px" y="0px"
	 viewBox="0 0 1190.55 841.89" style="enable-background:new 0 0 1190.55 841.89;" xml:space="preserve">
<path d="M395.75,390.87c-5.78,8.28-11.79,7.76-17.07,4.08c-5.28-3.69-7.83-9.15-2.05-17.43c5.78-8.28,17.71-16.24,22.99-12.56
	C404.9,368.65,401.54,382.59,395.75,390.87z M369.06,412.98c-2.75,8.23-6.75,13.82-15.63,17.26c-10.87,4.21-19.36,1.36-29.37-1.99
	c-10-3.34-18.5-6.17-24.66-16.07c-5.03-8.09-4.86-14.97-2.11-23.19c4.18-12.51,22.57-30.11,47.21-21.87
	C369.14,375.36,373.24,400.47,369.06,412.98z M289.26,355.27c0.36-10.09,6.06-23.25,12.49-23.02c6.44,0.23,11.17,13.77,10.81,23.86
	c-0.36,10.09-5.69,12.92-12.12,12.69C294,368.56,288.9,365.36,289.26,355.27z M319.56,338.33c3.21-12.21,13.76-26.7,21.54-24.66
	c7.79,2.04,9.86,19.85,6.65,32.06c-3.21,12.21-10.48,14.2-18.26,12.15C321.71,355.84,316.35,350.54,319.56,338.33z M354.77,348.02
	c4.78-11.68,17.14-24.66,24.59-21.62c7.45,3.05,7.17,20.97,2.39,32.66c-4.78,11.68-12.25,12.7-19.7,9.65
	C354.6,365.67,349.99,359.71,354.77,348.02z M342.88,290.33c-47.13,0-85.33,38.2-85.33,85.33c0,47.12,38.2,85.32,85.33,85.32
	c47.12,0,85.33-38.2,85.33-85.32C428.2,328.53,390,290.33,342.88,290.33z"/>
<path d="M628.68,534.5c0.61,0,1.01,0.47,0.95,0.95l-1.02,10.27c-0.07,0.54-0.61,0.95-1.08,0.95h-10.07v33.52
	c0,0.47-0.41,0.95-0.95,0.95h-11.96c-0.54,0-1.01-0.47-1.01-0.95v-33.52h-11.22c-0.47,0-0.95-0.41-0.95-0.95v-10.21
	c0-0.54,0.47-1.01,0.95-1.01H628.68z"/>
<path d="M644.92,532.13c0.54,0,1.01,0.48,1.01,1.01v13.65c1.83-2.36,5.07-3.79,8.72-3.79c8.11,0,12.91,4.6,12.91,12.44v24.67
	c0,0.54-0.47,1.01-1.02,1.01h-11.89c-0.54,0-1.01-0.47-0.94-1.01v-21.22c0-2.7-1.22-4.26-3.31-4.26c-3.85,0-4.46,3.78-4.46,3.78
	v21.7c0,0.54-0.47,1.01-1.01,1.01h-11.9c-0.54,0-1.01-0.47-1.01-1.01v-46.98c0-0.54,0.47-1.01,1.01-1.01H644.92z"/>
<path d="M738.73,554.57c2.37,0,3.99-1.62,3.99-3.99c0-2.37-1.62-3.99-3.99-3.99h-3.51v7.97H738.73z M738.13,534.5
	c11.82,0,18.92,6.42,18.92,16.09c0,9.67-7.1,16.09-18.92,16.09h-2.77v13.52c0,0.47-0.47,0.95-1.08,0.95h-12.1
	c-0.47,0-0.95-0.47-0.95-0.95v-44.68c0-0.54,0.47-1.01,0.95-1.01H738.13z"/>
<path d="M820.87,543.96c0.61,0,1.01,0.41,1.01,0.95l-0.74,6.56c-0.07,0.54-0.47,1.01-1.01,1.01h-4.33v27.64
	c0,0.54-0.47,1.01-1.01,1.01h-11.9c-0.54,0-1.01-0.47-1.01-1.01v-27.64h-3.85c-0.47,0-0.94-0.4-0.94-0.95v-6.56
	c0-0.61,0.47-1.01,0.94-1.01h3.85v-7.37c0-0.47,0.47-0.88,1.01-0.95l11.9-1.15c0.54-0.07,1.01,0.47,1.01,0.95v8.52H820.87z"/>
<path d="M851.28,554.57c2.37,0,3.99-1.62,3.99-3.99c0-2.37-1.62-3.99-3.99-3.99h-3.51v7.97H851.28z M850.67,534.5
	c11.83,0,18.92,6.42,18.92,16.09c0,9.67-7.09,16.09-18.92,16.09h-2.77v13.52c0,0.47-0.47,0.95-1.08,0.95h-12.1
	c-0.48,0-0.94-0.47-0.94-0.95v-44.68c0-0.54,0.47-1.01,0.94-1.01H850.67z"/>
<path d="M923.9,562.61c0,4.39,2.71,7.37,6.7,7.37c3.98,0,6.69-2.97,6.69-7.43c0-4.4-2.71-7.37-6.69-7.37
	C926.6,555.18,923.9,558.15,923.9,562.61z M950.46,562.55c0,11.76-7.98,19.6-19.87,19.6c-11.9,0-19.87-7.84-19.87-19.53
	c0-11.76,7.97-19.6,19.87-19.6C942.49,543.01,950.46,550.85,950.46,562.55z"/>
<path d="M968.41,566.74c0.81,2.23,2.97,3.72,5.33,3.72c3.73,0,6.22-3.11,6.22-7.84c0-4.87-2.5-8.11-6.22-8.11
	c-2.36,0-4.52,1.49-5.33,3.72V566.74z M965.22,547.41c2.57-2.71,6.89-4.46,11.42-4.46c10.68,0,17.85,7.84,17.85,19.6
	c0,11.69-7.17,19.53-17.85,19.53c-3.17,0-6.21-0.94-8.23-2.57v13.25c0,0.47-0.48,0.95-1.02,0.95h-11.89c-0.54,0-1.02-0.47-1.02-0.95
	v-47.78c0-0.54,0.47-1.02,1.02-1.02h7.64c0.47,0,0.81,0.41,1.09,1.02L965.22,547.41z"/>
<path d="M1011.42,532.13c0.54,0,1.01,0.48,1.01,0.95v47.04c0,0.54-0.47,1.01-1.01,1.01h-11.9c-0.54,0-1.01-0.47-1.01-1.01v-47.04
	c0-0.47,0.47-0.95,1.01-0.95H1011.42z"/>
<path d="M240.36,257.26c2.56,0,4.27,1.71,3.42,4.27v131.21c0,40.98-25.33,65.18-68.02,65.18c-18.22,0-37.28-5.69-47.53-14.23
	c-1.71-1.42-2.56-3.13-1.99-5.12l13.95-38.99c0.85-2.56,3.41-2.56,5.41-1.14c5.41,4.27,12.52,7.12,21.35,7.12
	c10.82,0,17.93-7.4,19.07-18.78V261.53c0-2.56,1.71-4.27,4.27-4.27H240.36z"/>
<path d="M495.86,247.3c2.28,0,4.27,1.99,4.27,3.98v198.09c0,2.28-1.99,4.27-4.27,4.27h-50.09c-2.28,0-4.27-1.99-4.27-4.27V251.28
	c0-1.99,1.99-3.98,4.27-3.98H495.86z"/>
<path d="M574.99,247.3c2.28,0,4.27,1.99,4.27,3.98v198.09c0,2.28-1.99,4.27-4.27,4.27H524.9c-2.28,0-4.27-1.99-4.27-4.27V251.28
	c0-1.99,1.99-3.98,4.27-3.98H574.99z"/>
<path d="M495.86,247.3c2.28,0,4.27,1.99,4.27,3.98v198.09c0,2.28-1.99,4.27-4.27,4.27h-50.09c-2.28,0-4.27-1.99-4.27-4.27V251.28
	c0-1.99,1.99-3.98,4.27-3.98H495.86z"/>
<path d="M574.99,247.3c2.28,0,4.27,1.99,4.27,3.98v198.09c0,2.28-1.99,4.27-4.27,4.27H524.9c-2.28,0-4.27-1.99-4.27-4.27V251.28
	c0-1.99,1.99-3.98,4.27-3.98H574.99z"/>
<path d="M759.82,297.12c2.56,0,3.69,1.99,3.13,3.98l-48.6,152.34c-13.64,42.63-37.23,57.13-73.61,57.13
	c-19.61,0-38.94-6.25-48.32-15.35c-1.42-1.42-1.7-3.41-1.42-4.83l15.92-32.12c0.85-1.99,2.27-2.56,3.41-1.7
	c9.38,6.54,19.61,10.23,27.85,10.23c14.49,0,21.89-6.54,25.86-23.02h-23.31c-2.84,0-4.55-1.99-5.12-3.98l-45.76-138.7
	c-0.85-1.99,0.57-3.98,2.84-3.98h57.13c2.56,0,4.55,1.7,5.4,3.98l21.89,89.24l21.6-89.24c0.57-2.56,3.13-3.98,5.12-3.98H759.82z"/>
<path d="M997.91,458.11c-13.71,0-27.32-2.27-40.43-6.74c-12.52-4.27-23.39-10.48-32.32-18.47c-1.13-1.01-1.4-2.7-0.65-4.03
	l15.65-27.44c1.13-1.98,3.24-3.2,5.53-3.2c1.19,0,2.36,0.34,3.39,0.99c7.95,5.02,15.77,9.07,23.24,12.02
	c8.84,3.5,17.05,5.27,24.41,5.27c10.82,0,10.82-4.79,10.82-6.37c0-2.41-1.35-4.45-4.12-6.24c-2.98-1.92-8.94-4.17-17.69-6.7
	c-11.06-3.16-20.45-6.32-27.88-9.4c-7.47-3.09-13.65-6.48-18.35-10.08c-4.78-3.66-8.23-7.79-10.27-12.28
	c-2.03-4.46-3.06-9.81-3.06-15.87c0-8.04,1.63-15.58,4.84-22.43c3.22-6.82,7.75-12.83,13.48-17.86c5.73-5.02,12.64-8.94,20.55-11.64
	c7.88-2.7,16.65-4.07,26.03-4.07c11.53,0,22.67,1.51,33.11,4.5c9.99,2.85,20.16,8.59,30.24,17.06c1.24,1.05,1.53,2.87,0.66,4.25
	l-19.16,30.36c-0.6,0.95-1.64,1.52-2.76,1.52c-0.62,0-1.23-0.18-1.75-0.52c-8.81-5.65-16.31-9.76-22.32-12.22
	c-6.37-2.61-12.44-3.93-18.01-3.93c-3.15,0-5.77,0.6-7.78,1.78c-1.85,1.09-2.75,2.79-2.75,5.18c0,2.6,1.4,4.68,4.24,6.37
	c3.05,1.82,9.26,3.93,18.43,6.27c11.27,2.97,20.91,6.13,28.65,9.41c7.78,3.29,14.12,6.94,18.83,10.85
	c4.76,3.95,8.21,8.49,10.26,13.48c2.02,4.96,3.05,10.74,3.05,17.18c0,8.25-1.53,15.69-4.56,22.13c-3.02,6.45-7.46,12.07-13.2,16.71
	c-5.72,4.62-12.74,8.18-20.86,10.58C1017.31,456.9,1008.06,458.11,997.91,458.11z"/>
<path d="M861.86,359.75c-0.93-7.71-3.5-13.79-7.73-18.26c-4.24-4.46-9.67-6.7-16.3-6.7c-6.63,0-12.06,2.24-16.29,6.7
	c-4.24,4.46-6.81,10.55-7.74,18.26H861.86z M838.66,459.86c-12.71,0-24.02-2.18-33.97-6.54c-9.94-4.36-18.27-10.29-24.99-17.8
	c-6.72-7.5-11.83-16.13-15.32-25.86c-3.5-9.74-5.25-19.98-5.25-30.73c0-11.56,1.7-22.52,5.11-32.86
	c3.4-10.35,8.46-19.37,15.18-27.08c6.72-7.71,15-13.85,24.86-18.41c9.85-4.57,21.31-6.85,34.38-6.85c12.88,0,24.3,2.28,34.24,6.85
	c9.94,4.56,18.27,10.65,24.99,18.26c6.71,7.61,11.78,16.43,15.19,26.47c3.4,10.04,5.11,20.54,5.11,31.49c0,3.04-0.14,6.14-0.42,9.28
	c-0.19,2.15-0.4,4.14-0.63,5.95c-0.17,1.38-1.36,2.41-2.74,2.41h-99.45c-0.02,0-0.04,0.02-0.04,0.04c0.56,8.5,3.41,14.63,8.55,18.37
	c5.15,3.75,10.78,5.63,16.85,5.63c5.7,0,11.09-1.42,16.16-4.26c4.32-2.43,7.4-5.67,9.24-9.72c0.54-1.2,1.89-1.82,3.15-1.42
	l39.07,12.3c1.63,0.51,2.43,2.37,1.64,3.89c-5.88,11.46-14.47,20.94-25.77,28.42C871.57,455.8,856.52,459.86,838.66,459.86z"/>
<path d="M696.17,558.6c-0.22-1.82-0.83-3.26-1.83-4.32c-1-1.06-2.29-1.58-3.85-1.58c-1.57,0-2.85,0.53-3.85,1.58
	c-1,1.06-1.61,2.5-1.83,4.32H696.17z M690.69,582.28c-3.01,0-5.68-0.52-8.03-1.55c-2.35-1.03-4.32-2.43-5.91-4.21
	c-1.59-1.77-2.8-3.82-3.62-6.12c-0.83-2.3-1.24-4.72-1.24-7.27c0-2.74,0.4-5.33,1.21-7.77c0.81-2.45,2-4.58,3.59-6.41
	c1.59-1.82,3.55-3.28,5.88-4.35c2.33-1.08,5.04-1.62,8.13-1.62c3.05,0,5.75,0.54,8.1,1.62c2.35,1.08,4.32,2.52,5.91,4.32
	c1.59,1.8,2.78,3.89,3.59,6.26c0.8,2.38,1.21,4.86,1.21,7.45c0,0.72-0.03,1.45-0.1,2.2c-0.04,0.51-0.09,0.98-0.15,1.41
	c-0.04,0.33-0.32,0.57-0.65,0.57h-23.52c0,0-0.01,0-0.01,0.01c0.13,2.01,0.81,3.46,2.02,4.35c1.22,0.89,2.55,1.33,3.99,1.33
	c1.35,0,2.62-0.33,3.82-1.01c1.02-0.57,1.75-1.34,2.19-2.3c0.13-0.28,0.45-0.43,0.74-0.34l9.24,2.91c0.39,0.12,0.57,0.56,0.39,0.92
	c-1.39,2.71-3.42,4.95-6.1,6.72C698.47,581.32,694.91,582.28,690.69,582.28z"/>
<path d="M782.67,558.6c-0.22-1.82-0.83-3.26-1.83-4.32c-1-1.06-2.29-1.58-3.85-1.58c-1.57,0-2.85,0.53-3.85,1.58
	c-1,1.06-1.61,2.5-1.83,4.32H782.67z M777.19,582.28c-3,0-5.68-0.52-8.03-1.55c-2.35-1.03-4.32-2.43-5.91-4.21
	c-1.59-1.77-2.8-3.82-3.63-6.12c-0.83-2.3-1.24-4.72-1.24-7.27c0-2.74,0.4-5.33,1.21-7.77c0.8-2.45,2-4.58,3.59-6.41
	c1.59-1.82,3.55-3.28,5.88-4.35c2.33-1.08,5.04-1.62,8.13-1.62c3.05,0,5.75,0.54,8.1,1.62c2.35,1.08,4.32,2.52,5.91,4.32
	c1.59,1.8,2.78,3.89,3.59,6.26c0.8,2.38,1.21,4.86,1.21,7.45c0,0.72-0.03,1.45-0.1,2.2c-0.04,0.51-0.09,0.98-0.15,1.41
	c-0.04,0.33-0.32,0.57-0.65,0.57h-23.52c0,0-0.01,0-0.01,0.01c0.13,2.01,0.81,3.46,2.02,4.35c1.22,0.89,2.55,1.33,3.99,1.33
	c1.35,0,2.62-0.33,3.82-1.01c1.02-0.57,1.75-1.34,2.19-2.3c0.13-0.28,0.45-0.43,0.74-0.34l9.24,2.91c0.39,0.12,0.57,0.56,0.39,0.92
	c-1.39,2.71-3.43,4.95-6.1,6.72C784.97,581.32,781.41,582.28,777.19,582.28z"/>
<path d="M895.33,558.6c-0.22-1.82-0.83-3.26-1.83-4.32c-1-1.06-2.29-1.58-3.86-1.58c-1.57,0-2.85,0.53-3.85,1.58
	c-1,1.06-1.61,2.5-1.83,4.32H895.33z M889.85,582.28c-3.01,0-5.69-0.52-8.04-1.55c-2.35-1.03-4.33-2.43-5.91-4.21
	c-1.59-1.77-2.8-3.82-3.63-6.12c-0.82-2.3-1.24-4.72-1.24-7.27c0-2.74,0.4-5.33,1.21-7.77c0.8-2.45,2-4.58,3.59-6.41
	c1.59-1.82,3.55-3.28,5.88-4.35c2.33-1.08,5.04-1.62,8.13-1.62c3.04,0,5.75,0.54,8.1,1.62c2.35,1.08,4.32,2.52,5.91,4.32
	c1.59,1.8,2.79,3.89,3.6,6.26c0.81,2.38,1.2,4.86,1.2,7.45c0,0.72-0.02,1.45-0.09,2.2c-0.05,0.51-0.09,0.98-0.15,1.41
	c-0.05,0.33-0.32,0.57-0.66,0.57h-23.52c0,0-0.01,0-0.01,0.01c0.13,2.01,0.81,3.46,2.02,4.35c1.22,0.89,2.55,1.33,3.99,1.33
	c1.35,0,2.62-0.33,3.82-1.01c1.03-0.57,1.75-1.34,2.19-2.3c0.13-0.28,0.45-0.43,0.74-0.34l9.24,2.91c0.39,0.12,0.57,0.56,0.39,0.92
	c-1.4,2.71-3.42,4.95-6.1,6.72C897.63,581.32,894.07,582.28,889.85,582.28z"/>
<path d="M1040.57,558.6c-0.22-1.82-0.82-3.26-1.83-4.32c-1-1.06-2.28-1.58-3.84-1.58c-1.57,0-2.86,0.53-3.86,1.58
	c-1.01,1.06-1.6,2.5-1.83,4.32H1040.57z M1035.09,582.28c-3.01,0-5.68-0.52-8.04-1.55c-2.35-1.03-4.32-2.43-5.91-4.21
	c-1.59-1.77-2.79-3.82-3.63-6.12c-0.82-2.3-1.24-4.72-1.24-7.27c0-2.74,0.41-5.33,1.22-7.77c0.8-2.45,2-4.58,3.59-6.41
	c1.59-1.82,3.55-3.28,5.88-4.35c2.33-1.08,5.05-1.62,8.14-1.62c3.05,0,5.74,0.54,8.1,1.62c2.35,1.08,4.32,2.52,5.91,4.32
	c1.59,1.8,2.78,3.89,3.59,6.26c0.81,2.38,1.21,4.86,1.21,7.45c0,0.72-0.03,1.45-0.1,2.2c-0.04,0.51-0.09,0.98-0.15,1.41
	c-0.05,0.33-0.32,0.57-0.64,0.57h-23.53c-0.01,0-0.01,0-0.01,0.01c0.13,2.01,0.81,3.46,2.02,4.35c1.22,0.89,2.54,1.33,3.98,1.33
	c1.35,0,2.63-0.33,3.82-1.01c1.02-0.57,1.75-1.34,2.19-2.3c0.13-0.28,0.45-0.43,0.74-0.34l9.24,2.91c0.39,0.12,0.57,0.56,0.4,0.92
	c-1.4,2.71-3.43,4.95-6.09,6.72C1042.87,581.32,1039.3,582.28,1035.09,582.28z"/>
</svg>
