<svg width="467" height="98" viewBox="0 0 467 98" fill="none" xmlns="http://www.w3.org/2000/svg">
<path d="M0 97.196V52.54C0 47.932 0.468 43.936 1.404 40.552C2.34 37.168 3.672 34.324 5.4 32.02C8.136 28.42 11.628 25.684 15.876 23.812C20.124 21.94 24.84 21.004 30.024 21.004C34.272 21.004 38.196 21.724 41.796 23.164C45.468 24.532 48.636 26.476 51.3 28.996C53.964 31.516 56.052 34.576 57.564 38.176C59.076 41.776 59.832 45.736 59.832 50.056C59.832 54.448 59.112 58.408 57.672 61.936C56.304 65.464 54.396 68.488 51.948 71.008C49.572 73.528 46.764 75.472 43.524 76.84C40.284 78.208 36.828 78.892 33.156 78.892C29.124 78.892 25.776 78.28 23.112 77.056C20.52 75.76 18.576 74.464 17.28 73.168V89.196C17.28 93.6143 13.6983 97.196 9.28 97.196H0ZM29.592 63.232C33.192 63.232 36.144 62.008 38.448 59.56C40.824 57.04 42.012 53.836 42.012 49.948C42.012 46.06 40.824 42.928 38.448 40.552C36.144 38.176 33.192 36.988 29.592 36.988C25.992 36.988 23.004 38.14 20.628 40.444C18.324 42.748 17.172 45.916 17.172 49.948C17.172 51.82 17.46 53.584 18.036 55.24C18.684 56.824 19.548 58.228 20.628 59.452C21.78 60.604 23.112 61.54 24.624 62.26C26.136 62.908 27.792 63.232 29.592 63.232Z" fill="#d5d5d5"/>
<path d="M122.273 13.984C122.273 11.176 123.101 9.196 124.757 8.044C126.413 6.892 128.609 6.316 131.345 6.316C133.289 6.316 135.053 6.568 136.637 7.072C138.221 7.504 139.229 7.792 139.661 7.936V22.516H158.023C159.527 22.516 161.989 22.516 164.195 22.516C165.965 22.516 166.89 24.6715 165.711 25.9922C164.433 27.4236 163.028 29.0766 162 30.5C160.789 32.1765 159.411 34.4375 158.4 36.1632C157.482 37.7285 155.814 38.716 154 38.716H139.661V55.672C139.661 57.328 139.913 58.66 140.417 59.668C140.921 60.604 141.533 61.36 142.253 61.936C143.045 62.512 143.909 62.908 144.845 63.124C145.853 63.268 146.861 63.34 147.869 63.34C149.885 63.34 151.721 63.052 153.377 62.476C155.381 61.6921 157.82 62.3897 158.889 64.2565L162.131 69.9168C163.072 71.5595 162.712 73.6249 161.085 74.5927C161.036 74.6217 160.987 74.6508 160.937 74.68C159.713 75.4 158.237 76.084 156.509 76.732C154.781 77.38 152.837 77.92 150.677 78.352C148.517 78.856 146.249 79.108 143.873 79.108C137.105 79.108 131.813 77.344 127.997 73.816C124.181 70.216 122.273 65.428 122.273 59.452V13.984Z" fill="#d5d5d5"/>
<path d="M225.451 44.224C225.451 40.48 226.171 37.168 227.611 34.288C229.051 31.336 231.031 28.888 233.551 26.944C236.071 25 238.987 23.524 242.299 22.516C245.611 21.508 249.175 21.004 252.991 21.004C256.735 21.004 260.263 21.508 263.575 22.516C266.959 23.524 269.875 25 272.323 26.944C274.843 28.888 276.823 31.336 278.263 34.288C279.703 37.168 280.423 40.48 280.423 44.224V77.596H263.035V48.22C263.035 44.404 262.171 41.596 260.443 39.796C258.715 37.924 256.231 36.988 252.991 36.988C246.223 36.988 242.839 40.732 242.839 48.22V77.596H225.451V44.224Z" fill="#d5d5d5"/>
<path d="M285.555 7.668C285.555 4.86 286.383 2.88 288.039 1.728C289.695 0.576001 291.891 0 294.627 0C296.571 0 298.299 0.252001 299.811 0.756003C301.395 1.188 302.403 1.476 302.835 1.62V26.944C304.131 25.648 306.075 24.352 308.667 23.056C311.331 21.688 314.679 21.004 318.711 21.004C322.383 21.004 325.839 21.724 329.079 23.164C332.319 24.532 335.127 26.476 337.503 28.996C339.951 31.516 341.859 34.576 343.227 38.176C344.667 41.704 345.387 45.664 345.387 50.056C345.387 54.376 344.631 58.336 343.119 61.936C341.607 65.536 339.519 68.596 336.855 71.116C334.191 73.636 331.023 75.616 327.351 77.056C323.751 78.424 319.827 79.108 315.579 79.108C310.395 79.108 305.679 78.172 301.431 76.3C297.183 74.428 293.691 71.692 290.955 68.092C289.227 65.788 287.895 62.944 286.959 59.56C286.023 56.176 285.555 52.18 285.555 47.572V7.668ZM315.147 63.124C318.747 63.124 321.699 61.936 324.003 59.56C326.379 57.184 327.567 54.052 327.567 50.164C327.567 46.276 326.379 43.108 324.003 40.66C321.699 38.14 318.747 36.88 315.147 36.88C313.347 36.88 311.691 37.24 310.179 37.96C308.667 38.608 307.335 39.544 306.183 40.768C305.103 41.92 304.239 43.324 303.591 44.98C303.015 46.564 302.727 48.292 302.727 50.164C302.727 54.196 303.879 57.364 306.183 59.668C308.559 61.972 311.547 63.124 315.147 63.124Z" fill="#d5d5d5"/>
<path d="M466.5 47.572C466.5 52.18 466.032 56.176 465.096 59.56C464.16 62.944 462.828 65.788 461.1 68.092C458.364 71.692 454.872 74.428 450.624 76.3C446.376 78.172 441.66 79.108 436.476 79.108C432.228 79.108 428.268 78.424 424.596 77.056C420.996 75.616 417.864 73.636 415.2 71.116C412.536 68.596 410.448 65.536 408.936 61.936C407.424 58.336 406.668 54.376 406.668 50.056C406.668 45.664 407.352 41.704 408.72 38.176C410.16 34.576 412.068 31.516 414.444 28.996C416.892 26.476 419.736 24.532 422.976 23.164C426.216 21.724 429.672 21.004 433.344 21.004C437.376 21.004 440.688 21.688 443.28 23.056C445.944 24.352 447.924 25.648 449.22 26.944V7.668C449.22 4.86 450.048 2.88 451.704 1.728C453.36 0.576001 455.556 0 458.292 0C460.236 0 461.964 0.252001 463.476 0.756003C465.06 1.188 466.068 1.476 466.5 1.62V47.572ZM436.908 63.124C440.508 63.124 443.46 61.972 445.764 59.668C448.14 57.364 449.328 54.196 449.328 50.164C449.328 48.292 449.004 46.564 448.356 44.98C447.78 43.324 446.916 41.92 445.764 40.768C444.684 39.544 443.388 38.608 441.876 37.96C440.364 37.24 438.708 36.88 436.908 36.88C433.308 36.88 430.32 38.14 427.944 40.66C425.64 43.108 424.488 46.276 424.488 50.164C424.488 54.052 425.64 57.184 427.944 59.56C430.32 61.936 433.308 63.124 436.908 63.124Z" fill="#d5d5d5"/>
<path fill-rule="evenodd" clip-rule="evenodd" d="M82.4423 57.292C82.5863 58.156 82.9463 59.02 83.5223 59.884C84.1703 60.676 85.0343 61.432 86.1143 62.152C87.2663 62.872 88.7063 63.448 90.4343 63.88C92.1623 64.312 94.2503 64.528 96.6983 64.528C98.5703 64.528 100.334 64.384 101.99 64.096C103.646 63.736 105.086 63.376 106.31 63.016C106.564 62.9322 106.802 62.8524 107.027 62.7748C109.132 62.0503 111.551 62.8056 112.547 64.7967L115.317 70.3368C116.15 72.0033 115.554 73.9904 113.87 74.788C112.574 75.436 110.918 76.084 108.902 76.732C106.886 77.38 104.51 77.92 101.774 78.352C99.1103 78.856 96.1583 79.108 92.9183 79.108C88.8863 79.108 85.1063 78.46 81.5783 77.164C78.0503 75.868 74.9543 73.996 72.2903 71.548C69.6983 69.028 67.6463 65.968 66.1343 62.368C64.6223 58.768 63.8663 54.664 63.8663 50.056C63.8663 45.736 64.6223 41.776 66.1343 38.176C67.6463 34.576 69.7343 31.516 72.3983 28.996C75.0623 26.476 78.1943 24.532 81.7943 23.164C85.3943 21.724 89.2823 21.004 93.4583 21.004C97.3463 21.004 100.838 21.544 103.934 22.624C107.03 23.632 109.622 25.036 111.71 26.836C113.87 28.636 115.49 30.688 116.57 32.992C117.722 35.296 118.298 37.672 118.298 40.12C118.298 42.784 117.83 45.196 116.894 47.356C115.958 49.444 114.266 51.244 111.818 52.756C109.442 54.196 106.166 55.312 101.99 56.104C97.8863 56.896 92.6303 57.292 86.2223 57.292H82.4423ZM92.8103 45.52C90.1463 45.88 86.4023 46.06 81.5783 46.06C81.6503 44.62 81.9383 43.216 82.4423 41.848C82.9463 40.408 83.6663 39.148 84.6023 38.068C85.6103 36.988 86.8343 36.124 88.2743 35.476C89.7143 34.756 91.4063 34.396 93.3503 34.396C96.0863 34.396 98.1383 34.972 99.5063 36.124C100.874 37.204 101.558 38.5 101.558 40.012C101.558 40.732 101.414 41.452 101.126 42.172C100.838 42.892 100.046 43.54 98.7503 44.116C97.4543 44.692 95.4743 45.16 92.8103 45.52Z" fill="#d5d5d5"/>
<path fill-rule="evenodd" clip-rule="evenodd" d="M367.997 57.292C368.141 58.156 368.501 59.02 369.077 59.884C369.725 60.676 370.589 61.432 371.669 62.152C372.821 62.872 374.261 63.448 375.989 63.88C377.717 64.312 379.805 64.528 382.253 64.528C384.125 64.528 385.889 64.384 387.545 64.096C389.201 63.736 390.641 63.376 391.865 63.016C392.157 62.9224 392.43 62.8306 392.752 62.71C394.768 61.9547 397.055 62.7051 398.018 64.6307L400.871 70.3368C401.705 72.0033 401.109 73.9904 399.425 74.788C398.129 75.436 396.473 76.084 394.457 76.732C392.441 77.38 390.065 77.92 387.329 78.352C384.665 78.856 381.713 79.108 378.473 79.108C374.441 79.108 370.661 78.46 367.133 77.164C363.605 75.868 360.509 73.996 357.845 71.548C355.253 69.028 353.201 65.968 351.689 62.368C350.177 58.768 349.421 54.664 349.421 50.056C349.421 45.736 350.177 41.776 351.689 38.176C353.201 34.576 355.289 31.516 357.953 28.996C360.617 26.476 363.749 24.532 367.349 23.164C370.949 21.724 374.837 21.004 379.013 21.004C382.901 21.004 386.393 21.544 389.489 22.624C392.585 23.632 395.177 25.036 397.265 26.836C399.425 28.636 401.045 30.688 402.125 32.992C403.277 35.296 403.853 37.672 403.853 40.12C403.853 42.784 403.385 45.196 402.449 47.356C401.513 49.444 399.821 51.244 397.373 52.756C394.997 54.196 391.721 55.312 387.545 56.104C383.441 56.896 378.185 57.292 371.777 57.292H367.997ZM378.365 45.52C375.701 45.88 371.957 46.06 367.133 46.06C367.205 44.62 367.493 43.216 367.997 41.848C368.501 40.408 369.221 39.148 370.157 38.068C371.165 36.988 372.389 36.124 373.829 35.476C375.269 34.756 376.961 34.396 378.905 34.396C381.641 34.396 383.693 34.972 385.061 36.124C386.429 37.204 387.113 38.5 387.113 40.012C387.113 40.732 386.969 41.452 386.681 42.172C386.393 42.892 385.601 43.54 384.305 44.116C383.009 44.692 381.029 45.16 378.365 45.52Z" fill="#d5d5d5"/>
<path fill-rule="evenodd" clip-rule="evenodd" d="M162.964 38.496C161.38 42.024 160.588 45.876 160.588 50.052C160.588 54.228 161.38 58.08 162.964 61.608C164.548 65.136 166.708 68.196 169.444 70.788C172.252 73.38 175.492 75.432 179.164 76.944C182.836 78.384 186.796 79.104 191.044 79.104C195.22 79.104 199.144 78.384 202.816 76.944C206.56 75.432 209.8 73.38 212.536 70.788C215.344 68.196 217.54 65.136 219.124 61.608C220.708 58.08 221.5 54.228 221.5 50.052C221.5 45.876 220.708 42.024 219.124 38.496C217.54 34.968 215.344 31.908 212.536 29.316C209.8 26.724 206.56 24.708 202.816 23.268C199.144 21.756 195.22 21 191.044 21C186.796 21 182.836 21.756 179.164 23.268C175.492 24.708 172.252 26.724 169.444 29.316C166.708 31.908 164.548 34.968 162.964 38.496ZM189.876 41.4443C189.876 44.1448 188.372 46.334 186.516 46.334C184.66 46.334 183.156 44.1448 183.156 41.4443C183.156 38.7438 184.66 36.5546 186.516 36.5546C188.372 36.5546 189.876 38.7438 189.876 41.4443ZM198.84 41.4448C198.84 44.1453 197.336 46.3345 195.48 46.3345C193.624 46.3345 192.12 44.1453 192.12 41.4448C192.12 38.7442 193.624 36.555 195.48 36.555C197.336 36.555 198.84 38.7442 198.84 41.4448ZM205 47.7604C205 50.2347 203.746 52.2405 202.2 52.2405C200.654 52.2405 199.4 50.2347 199.4 47.7604C199.4 45.2862 200.654 43.2804 202.2 43.2804C203.746 43.2804 205 45.2862 205 47.7604ZM191.024 47.2369L190.86 47.2358C187.003 47.2358 184.474 49.6828 182.511 53.3808C181.627 55.0413 181.176 56.9108 181.242 58.6445C181.312 60.4852 181.95 61.9636 183.037 62.807C183.476 63.1474 183.949 63.3189 184.446 63.3189C185.47 63.3189 186.408 62.6229 187.494 61.8164L187.496 61.8153C190.006 60.6202 191.701 60.7028 194.179 61.8813C195.187 62.6834 196.139 63.4403 197.172 63.4403C197.615 63.4403 198.045 63.2991 198.45 63.0211C200.686 61.4876 201.112 57.2804 199.4 53.6429C197.589 49.7953 194.852 47.3022 191.024 47.2369ZM179.8 52.3298C181.346 52.3298 182.6 50.324 182.6 47.8498C182.6 45.3755 181.346 43.3697 179.8 43.3697C178.253 43.3697 177 45.3755 177 47.8498C177 50.324 178.253 52.3298 179.8 52.3298Z" fill="#d5d5d5"/>
</svg>
